<svg width="35" height="35" viewBox="0 0 35 35" fill="none" xmlns="http://www.w3.org/2000/svg">
<g clip-path="url(#clip0_1_8)">
<rect width="34.0909" height="34.0909" rx="17.0455" fill="#F8EDD9"/>
<g clip-path="url(#clip1_1_8)">
<path d="M9.25825 15.1461C9.01039 15.9737 9.47957 16.8439 10.3072 17.0917C11.1349 17.3396 12.005 16.8704 12.2529 16.0427L13.9172 10.4736L17.6836 7.63779C17.9584 7.43086 18.3526 7.48642 18.5595 7.76125C18.7664 8.03607 18.7108 8.43023 18.436 8.63716L15.9376 10.5183C15.3848 10.9345 15.2745 11.7173 15.6907 12.2701C16.1069 12.8229 16.8897 12.9332 17.4425 12.517L22.3862 8.79474C23.2951 8.11048 23.943 7.1382 24.2263 6.03916L24.782 3.85909L25.9313 2.99377C26.4841 2.57757 26.5944 1.79473 26.1782 1.24195L24.6733 -0.756787C24.2571 -1.30956 23.4742 -1.4199 22.9215 -1.0037L12.9122 6.53257C12.0065 7.21448 11.3414 8.17037 11.015 9.25776L9.25513 15.1484L9.25825 15.1461Z" fill="#103128"/>
</g>
<g clip-path="url(#clip2_1_8)">
<path d="M22.9354 15.2532C22.3134 15.2836 21.8242 15.8116 21.7578 16.4308L21.2464 21.0278C21.1856 21.5917 20.9313 22.1169 20.5277 22.5205L17.2576 25.7906C17.0143 26.0339 16.6163 26.0339 16.373 25.7906C16.1298 25.5473 16.1298 25.1493 16.373 24.906L18.5374 22.7416C18.977 22.3021 19.0848 21.5917 18.7226 21.0858C18.261 20.4417 17.3543 20.3864 16.8153 20.9255L12.3925 25.3483C11.6461 26.0947 11.1817 27.0732 11.0711 28.1236L10.8279 30.4512L9.29647 31.9826C9.05321 32.2258 9.05321 32.6239 9.29647 32.8671L11.9502 35.5208C12.1934 35.7641 12.5915 35.7641 12.8347 35.5208L22.6977 25.6579C23.0985 25.2571 23.3528 24.7319 23.4164 24.1652L24.2512 16.6408C24.3369 15.8862 23.7287 15.2117 22.9354 15.2532Z" fill="#103128"/>
</g>
</g>
<defs>
<clipPath id="clip0_1_8">
<rect width="34.0909" height="34.0909" rx="17.0455" fill="white"/>
</clipPath>
<clipPath id="clip1_1_8">
<rect width="22.5174" height="20.0155" fill="white" transform="translate(35.9602 14.2317) rotate(143.023)"/>
</clipPath>
<clipPath id="clip2_1_8">
<rect width="22.5174" height="20.0155" fill="white" transform="translate(-1.76083 21.8116) rotate(-45)"/>
</clipPath>
</defs>
</svg>
