<svg width="186" height="45" viewBox="0 0 186 45" fill="none" xmlns="http://www.w3.org/2000/svg">
<g clip-path="url(#clip0_1_7)">
<rect x="16.3636" y="5.45455" width="34.0909" height="34.0909" rx="17.0455" fill="#F8EDD9"/>
<g clip-path="url(#clip1_1_7)">
<path d="M25.6219 20.6006C25.374 21.4283 25.8432 22.2984 26.6709 22.5463C27.4985 22.7941 28.3687 22.325 28.6165 21.4973L30.2808 15.9281L34.0472 13.0923C34.322 12.8854 34.7162 12.941 34.9231 13.2158C35.13 13.4906 35.0745 13.8848 34.7997 14.0917L32.3012 15.9728C31.7485 16.389 31.6381 17.1719 32.0543 17.7247C32.4705 18.2774 33.2534 18.3878 33.8061 17.9716L38.7499 14.2493C39.6587 13.565 40.3066 12.5927 40.5899 11.4937L41.1456 9.31364L42.2949 8.44832C42.8477 8.03212 42.958 7.24927 42.5418 6.6965L41.0369 4.69776C40.6207 4.14498 39.8379 4.03464 39.2851 4.45084L29.2758 11.9871C28.3701 12.669 27.705 13.6249 27.3787 14.7123L25.6188 20.603L25.6219 20.6006Z" fill="#103128"/>
</g>
<g clip-path="url(#clip2_1_7)">
<path d="M39.299 20.7077C38.6771 20.7381 38.1878 21.2661 38.1215 21.8853L37.6101 26.4823C37.5492 27.0462 37.2949 27.5714 36.8913 27.975L33.6212 31.2451C33.378 31.4884 32.9799 31.4884 32.7366 31.2451C32.4934 31.0019 32.4934 30.6038 32.7366 30.3606L34.9011 28.1961C35.3406 27.7566 35.4484 27.0462 35.0863 26.5403C34.6246 25.8963 33.718 25.841 33.1789 26.38L28.7561 30.8029C28.0097 31.5492 27.5453 32.5278 27.4348 33.5782L27.1915 35.9057L25.6601 37.4371C25.4168 37.6804 25.4168 38.0784 25.6601 38.3217L28.3138 40.9754C28.5571 41.2186 28.9551 41.2186 29.1984 40.9754L39.0613 31.1125C39.4621 30.7116 39.7164 30.1864 39.78 29.6197L40.6148 22.0954C40.7005 21.3407 40.0924 20.6663 39.299 20.7077Z" fill="#103128"/>
</g>
</g>
<path d="M61.9442 18.5121H64.304V26.3636H62.7752V21.0529C62.7752 20.9002 62.777 20.6871 62.7805 20.4137C62.7841 20.1367 62.7859 19.9237 62.7859 19.7745L61.2997 26.3636H59.707L58.2315 19.7745C58.2315 19.9237 58.2333 20.1367 58.2369 20.4137C58.2404 20.6871 58.2422 20.9002 58.2422 21.0529V26.3636H56.7134V18.5121H59.0998L60.5273 24.6857L61.9442 18.5121ZM65.9393 27.4769L66.131 27.4876C66.2802 27.4947 66.4222 27.4893 66.5572 27.4716C66.6921 27.4538 66.8058 27.413 66.8981 27.3491C66.9869 27.2887 67.0685 27.1626 67.1431 26.9709C67.2212 26.7791 67.2532 26.6619 67.239 26.6193L65.1083 20.5575H66.7969L68.0646 24.8402L69.2631 20.5575H70.8771L68.8849 26.2678C68.5014 27.3686 68.1978 28.0504 67.9741 28.3132C67.7504 28.5795 67.3029 28.7127 66.6317 28.7127C66.4968 28.7127 66.3885 28.7109 66.3068 28.7074C66.2251 28.7074 66.1026 28.7021 65.9393 28.6914V27.4769ZM71.5589 22.5018C71.5589 21.131 71.9265 20.0746 72.6616 19.3324C73.3008 18.6861 74.114 18.3629 75.1012 18.3629C76.4222 18.3629 77.3881 18.7962 77.9989 19.6626C78.3363 20.1491 78.5174 20.6374 78.5423 21.1275H76.9016C76.7951 20.7511 76.6584 20.467 76.4915 20.2752C76.1932 19.9343 75.7511 19.7638 75.1651 19.7638C74.5685 19.7638 74.098 20.0053 73.7535 20.4883C73.4091 20.9677 73.2369 21.6477 73.2369 22.5284C73.2369 23.4091 73.418 24.0696 73.7802 24.5099C74.1459 24.9467 74.6094 25.1651 75.1705 25.1651C75.7457 25.1651 76.1843 24.9769 76.4861 24.6005C76.6531 24.3981 76.7915 24.0945 76.9016 23.6896H78.5263C78.3842 24.5455 78.0202 25.2415 77.4343 25.7777C76.8519 26.3139 76.1044 26.582 75.1918 26.582C74.0625 26.582 73.1747 26.2198 72.5284 25.4954C71.8821 24.7674 71.5589 23.7695 71.5589 22.5018ZM81.1736 20.5575V24.0572C81.1736 24.3874 81.2127 24.636 81.2908 24.8029C81.4293 25.0977 81.701 25.245 82.1058 25.245C82.6243 25.245 82.9794 25.0355 83.1712 24.6165C83.2706 24.3892 83.3203 24.0891 83.3203 23.7163V20.5575H84.8597V26.3636H83.3842V25.5433C83.37 25.5611 83.3345 25.6143 83.2777 25.7031C83.2209 25.7919 83.1534 25.87 83.0753 25.9375C82.8374 26.1506 82.6065 26.2962 82.3828 26.3743C82.1626 26.4524 81.9034 26.4915 81.6051 26.4915C80.7457 26.4915 80.1669 26.1825 79.8686 25.5646C79.7017 25.2237 79.6182 24.7212 79.6182 24.0572V20.5575H81.1736ZM85.7333 21.6921V20.6108H86.543V18.9915H88.0451V20.6108H88.9879V21.6921H88.0451V24.7603C88.0451 24.9982 88.0753 25.1474 88.1357 25.2077C88.196 25.2646 88.3807 25.293 88.6896 25.293C88.7358 25.293 88.7837 25.293 88.8334 25.293C88.8867 25.2894 88.9382 25.2859 88.9879 25.2823V26.4169L88.2688 26.4435C87.5515 26.4684 87.0614 26.3441 86.7986 26.0707C86.6282 25.8967 86.543 25.6286 86.543 25.2663V21.6921H85.7333Z" fill="#F8EDD9"/>
<defs>
<clipPath id="clip0_1_7">
<rect x="16.3636" y="5.45455" width="34.0909" height="34.0909" rx="17.0455" fill="white"/>
</clipPath>
<clipPath id="clip1_1_7">
<rect width="22.5174" height="20.0155" fill="white" transform="translate(52.3239 19.6863) rotate(143.023)"/>
</clipPath>
<clipPath id="clip2_1_7">
<rect width="22.5174" height="20.0155" fill="white" transform="translate(14.6028 27.2662) rotate(-45)"/>
</clipPath>
</defs>
</svg>
